<?xml version="1.0"?>
<svg width="40" height="64" xmlns="http://www.w3.org/2000/svg" xmlns:svg="http://www.w3.org/2000/svg">
 <g class="layer" display="inline">
  <title>cariescenter</title>
  <path d="m16.2488,17.58373l1.47369,-1.21053l2.73684,-0.21052c0,0 3.68421,0.68421 4.10526,2.89473c0.42106,2.21053 -1.47368,4.10527 -1.57894,4.05263c-0.10527,-0.05263 -0.52632,0.89474 -3.36842,0.57895c-2.84211,-0.31579 -4.94737,-2 -4.31579,-3.47368c0.63158,-1.47369 0.94736,-2.63158 0.94736,-2.63158z" fill="#ff0000" id="svg_66" stroke="#ff0000" stroke-dasharray="null" stroke-linecap="null" stroke-linejoin="null" stroke-width="null"/>
 </g>
 <g class="layer" display="inline">
  <title>diente</title>
  <ellipse cx="19.86014" cy="20.174825" fill="none" id="svg_27" rx="5.230769" ry="4.153846" stroke="#000000" stroke-dasharray="null" stroke-linecap="null" stroke-linejoin="null" stroke-width="null"/>
  <line fill="none" id="svg_29" stroke="#000000" stroke-dasharray="null" stroke-linecap="null" stroke-linejoin="null" stroke-width="null" x1="11.090909" x2="16.321678" y1="13.097902" y2="17.251749"/>
  <line fill="none" id="svg_30" stroke="#000000" stroke-dasharray="null" stroke-linecap="null" stroke-linejoin="null" stroke-width="null" x1="23.706294" x2="28.167832" y1="17.251749" y2="12.174826"/>
  <line fill="none" id="svg_31" stroke="#000000" stroke-dasharray="null" stroke-linecap="null" stroke-linejoin="null" stroke-width="null" x1="24.167832" x2="28.783217" y1="22.328672" y2="27.405595"/>
  <line fill="none" id="svg_32" stroke="#000000" stroke-dasharray="null" stroke-linecap="null" stroke-linejoin="null" stroke-width="null" x1="16.013986" x2="11.86014" y1="22.944056" y2="27.713287"/>
  <ellipse cx="20.244757" cy="20.097905" fill="none" id="svg_54" rx="12.692308" ry="10.076923" stroke="#000000" stroke-dasharray="null" stroke-linecap="null" stroke-linejoin="null" stroke-width="null"/>
 </g>
</svg>