<?xml version="1.0"?>
<svg width="40" height="64" xmlns="http://www.w3.org/2000/svg" xmlns:svg="http://www.w3.org/2000/svg">
 <g class="layer" display="inline">
  <title>cariesright</title>
  <path d="m24.27751,17.16268l0.76629,1.94736l0,1.47369l-0.43788,1.15789c0,0 0.32841,1.10527 0.32841,1c0,-0.10526 3.94089,4.21053 3.83142,4.1579c-0.10947,-0.05263 1.64204,-1.73684 1.53257,-1.78948c-0.10946,-0.05263 1.0947,-1.42105 0.98523,-1.47368c-0.10947,-0.05263 0.54735,-1.52632 0.43788,-1.57895c-0.10947,-0.05263 0.87575,-1.94737 0.76628,-2c-0.10947,-0.05263 -0.32841,-1.52631 -0.43788,-1.57894c-0.10947,-0.05264 -0.3284,-1.84211 -0.43787,-1.89474c-0.10947,-0.05263 -0.65682,-1.42105 -0.76629,-1.47368c-0.10947,-0.05264 -0.87575,-1.10527 -0.98522,-1.1579c-0.10947,-0.05263 -0.76629,-0.78947 -0.87576,-0.8421c-0.10947,-0.05264 -0.98522,-0.26316 -1.09469,-0.31579c-0.10947,-0.05264 -3.61249,4.36842 -3.61249,4.36842z" fill="#ff0000" id="svg_64" stroke="#ff0000" stroke-dasharray="null" stroke-linecap="null" stroke-linejoin="null" stroke-width="null"/>
 </g>
 <g class="layer" display="inline">
  <title>diente</title>
  <ellipse cx="19.86014" cy="20.174825" fill="none" id="svg_27" rx="5.230769" ry="4.153846" stroke="#000000" stroke-dasharray="null" stroke-linecap="null" stroke-linejoin="null" stroke-width="null"/>
  <line fill="none" id="svg_29" stroke="#000000" stroke-dasharray="null" stroke-linecap="null" stroke-linejoin="null" stroke-width="null" x1="11.090909" x2="16.321678" y1="13.097902" y2="17.251749"/>
  <line fill="none" id="svg_30" stroke="#000000" stroke-dasharray="null" stroke-linecap="null" stroke-linejoin="null" stroke-width="null" x1="23.706294" x2="28.167832" y1="17.251749" y2="12.174826"/>
  <line fill="none" id="svg_31" stroke="#000000" stroke-dasharray="null" stroke-linecap="null" stroke-linejoin="null" stroke-width="null" x1="24.167832" x2="28.783217" y1="22.328672" y2="27.405595"/>
  <line fill="none" id="svg_32" stroke="#000000" stroke-dasharray="null" stroke-linecap="null" stroke-linejoin="null" stroke-width="null" x1="16.013986" x2="11.86014" y1="22.944056" y2="27.713287"/>
  <ellipse cx="20.244757" cy="20.097905" fill="none" id="svg_54" rx="12.692308" ry="10.076923" stroke="#000000" stroke-dasharray="null" stroke-linecap="null" stroke-linejoin="null" stroke-width="null"/>
 </g>
</svg>